<svg width="219" height="99" viewBox="0 0 219 99" fill="none" xmlns="http://www.w3.org/2000/svg">
<path fill-rule="evenodd" clip-rule="evenodd" d="M42.4305 10C23.9431 10 10 23.825 10 42.7433V88.9998H43.0502C61.2279 88.9998 74.8611 78.3972 74.8611 61.142C74.8611 55.6328 73.3118 50.3315 70.42 46.1736C71.1429 43.5749 71.4528 40.7683 71.4528 38.0657C71.4528 22.3697 59.8852 10 42.4305 10ZM20.9479 78.9169V42.7433C20.9479 29.2302 30.0367 19.771 42.6371 19.771C53.1719 19.771 60.195 26.8394 60.7115 37.2341C55.8572 33.2842 50.5898 31.621 45.4257 31.621C34.6844 31.621 27.1448 38.8973 27.1448 48.9802C27.1448 58.8551 34.9942 66.1314 45.9421 66.1314C53.1719 66.1314 59.1622 62.9091 63.6033 56.7762C63.8099 57.9196 64.0165 59.063 64.0165 60.3104C64.0165 72.5762 54.6178 78.9169 43.0502 78.9169H20.9479ZM46.5618 56.5683C41.6043 56.5683 37.7828 53.5538 37.7828 48.8762C37.7828 44.4065 41.6043 41.1841 46.5618 41.1841C51.2095 41.1841 55.6506 43.5749 58.9557 47.8367C56.3736 53.6578 51.4161 56.5683 46.5618 56.5683Z" fill="white"/>
<path d="M111.746 64.3126V50.0198H102.657V64.3126H99.3521L90.4698 50.0198H80.2449L92.0191 68.5224L80.2449 89H90.2633L99.3004 72.9922H102.657V89H111.746V72.9922H115.051L123.933 89H134.261L122.591 68.0027L134.261 50.0198H123.985L115.051 64.3126H111.746Z" fill="white"/>
<path d="M149.259 79.4888L145.231 89H154.63L171.155 50.0198H161.653L153.855 68.5224L145.18 50.0198H135.007L149.259 79.4888Z" fill="white"/>
<path d="M191.236 62.2336L183.128 50.0198H172.438L184.884 68.8862L172.696 89H182.663L189.996 76.6303L198.155 89H208.897L196.296 69.9777L209 50.0198H198.62L191.236 62.2336Z" fill="white"/>
</svg>
