<svg width="63" height="63" viewBox="0 0 63 63" fill="none" xmlns="http://www.w3.org/2000/svg">
<path d="M1.46014 5.30174C-0.72034 2.49593 2.92466 -1.10087 5.70118 1.11678L29.5 20.1253C30.5833 20.9906 32.1184 21.0008 33.2132 20.1501L57.263 1.46013C60.0689 -0.720351 63.6657 2.92465 61.448 5.70117L42.4394 29.5C41.5742 30.5833 41.564 32.1184 42.4147 33.2132L61.1047 57.263C63.2851 60.0688 59.6401 63.6656 56.8636 61.448L33.0648 42.4394C31.9814 41.5742 30.4464 41.564 29.3516 42.4147L5.30174 61.1046C2.49594 63.2851 -1.10086 59.6401 1.11679 56.8636L20.1254 33.0647C20.9906 31.9814 21.0008 30.4463 20.1501 29.3516L1.46014 5.30174Z" fill="#87C5FD"/>
</svg>
